<svg width="256" height="256" viewBox="0 0 256 256" fill="none" xmlns="http://www.w3.org/2000/svg">
<rect width="256" height="256" rx="10" fill="#E11D48"/>
<path d="M97.448 173V83.4H134.312C139.944 83.4 144.893 84.552 149.16 86.856C153.512 89.0747 156.883 92.232 159.272 96.328C161.747 100.424 162.984 105.288 162.984 110.92V112.712C162.984 118.259 161.704 123.123 159.144 127.304C156.669 131.4 153.256 134.6 148.904 136.904C144.637 139.123 139.773 140.232 134.312 140.232H114.344V173H97.448ZM114.344 124.872H132.648C136.659 124.872 139.901 123.763 142.376 121.544C144.851 119.325 146.088 116.296 146.088 112.456V111.176C146.088 107.336 144.851 104.307 142.376 102.088C139.901 99.8693 136.659 98.76 132.648 98.76H114.344V124.872Z" fill="#FAFAFA"/>
</svg>
